<svg viewBox="0 0 60 60" xmlns="http://www.w3.org/2000/svg">
  <defs>
    <radialGradient id="sphereGradient" cx="0.3" cy="0.3" r="0.7">
      <stop offset="0%" stop-color="#4C1D95" />
      <stop offset="40%" stop-color="#3F125B" />
      <stop offset="80%" stop-color="#320B4F" />
      <stop offset="100%" stop-color="#1E0A2E" />
    </radialGradient>
    <radialGradient id="sphereHighlight" cx="0.25" cy="0.25" r="0.3">
      <stop offset="0%" stop-color="#FFFFFF" stop-opacity="0.7" />
      <stop offset="50%" stop-color="#FFFFFF" stop-opacity="0.3" />
      <stop offset="100%" stop-color="#FFFFFF" stop-opacity="0" />
    </radialGradient>
  </defs>

  <!-- 3D sphere -->
  <circle cx="30" cy="30" r="25" fill="url(#sphereGradient)" stroke="#4A4A4A" stroke-width="1"/>
  <ellipse cx="22" cy="22" rx="10" ry="8" fill="url(#sphereHighlight)" />
  <ellipse cx="20" cy="20" rx="4" ry="3" fill="#FFFFFF" opacity="0.6" />

  <!-- Eye of Horus -->
  <g stroke="#B8E234" stroke-width="2" stroke-linecap="round" stroke-linejoin="round" fill="none"
     style="opacity: 0.95;" transform="scale(1.2) translate(-2, -3)">
    <path d="M24 24 Q28 19 33 24 Q38 19 42 24 Q38 29 33 24 Q28 29 24 24 Z"/>
    <path d="M25 19 Q33 16 41 19"/>
    <circle cx="33" cy="24" r="2.2" fill="#B8E234"/>
    <path d="M30 29 Q28 31 28 34 Q28 36 30 36 Q32 34 30 29"/>
    <path d="M42 24 Q44 26 42 28 Q40 30 38 28 Q40 26 42 24"/>
    <path d="M38 28 Q38 32 39 36"/>
    <path d="M34 31 Q34 35 35 39"/>
    <path d="M26 27 Q24 29 23 32"/>
  </g>

  <ellipse cx="28" cy="21" rx="10" ry="8" fill="none" stroke="#B8E234" stroke-width="0.6" opacity="0.35"
           stroke-dasharray="1,4" transform="rotate(-10 28 21) scale(1.2)"/>
  <ellipse cx="28" cy="21" rx="7" ry="5" fill="#9BCF20" opacity="0.25" transform="scale(1.2)"/>
</svg>
